<svg width="200" height="200" viewBox="0 0 200 200" fill="none" xmlns="http://www.w3.org/2000/svg">
<g id="success icon with circle">
<path id="Ellipse 8" d="M200 100C200 155.228 155.228 200 100 200C44.7715 200 0 155.228 0 100C0 44.7715 44.7715 0 100 0C155.228 0 200 44.7715 200 100Z" fill="#D1FAEC"/>
<g id="green">
<path d="M138.187 77.1532C141.203 74.1611 141.222 69.2907 138.23 66.2747C136.73 64.7627 134.758 64.0039 132.784 64L147.385 64C149.364 64.0001 151.342 64.7589 152.846 66.2747C155.838 69.2907 155.818 74.1612 152.802 77.1532L94.6488 134.846C93.1493 136.333 91.1902 137.077 89.2312 137.077L73.9233 137.077L73.9051 137.044C76.0937 137.246 78.3523 136.513 80.0333 134.845L138.187 77.1532Z" fill="#33CC99"/>
<path d="M49.2983 96.977C49.4225 96.9706 49.5468 96.9673 49.6711 96.9669H49.3082C49.3049 96.9703 49.3016 96.9736 49.2983 96.977Z" fill="#33CC99"/>
<path d="M49.7142 96.9669C51.6654 96.9724 53.6154 97.7156 55.1101 99.1983L74.6157 118.549L81.9234 111.299L69.7255 99.1983C68.2253 97.7101 66.2664 96.9669 64.3079 96.9669H49.7142Z" fill="#33CC99"/>
<path d="M132.754 64L132 64L131.968 64.0416C132.229 64.0144 132.492 64.0005 132.754 64Z" fill="#33CC99"/>
</g>
<path id="white" d="M138.23 66.2747C141.222 69.2907 141.203 74.1612 138.187 77.1532L80.0332 134.846C77.0342 137.821 72.197 137.821 69.198 134.846L44.2747 110.12C41.2588 107.128 41.2394 102.258 44.2314 99.2417C47.2234 96.2257 52.0939 96.2063 55.1099 99.1983L74.6156 118.549L127.352 66.2314C130.368 63.2394 135.238 63.2588 138.23 66.2747Z" fill="white"/>
<path id="stroke" d="M49.7141 96.967C51.6652 96.9724 53.6153 97.7156 55.1099 99.1983L74.6156 118.549L81.9232 111.299M49.7141 96.967C47.728 96.9614 45.7407 97.7203 44.2314 99.2417C41.2394 102.258 41.2588 107.128 44.2747 110.12L69.198 134.846C70.686 136.322 72.6264 137.065 74.5703 137.077M49.7141 96.967C53.4626 96.967 62.4017 96.967 64.3078 96.967C66.2662 96.9669 68.2252 97.7101 69.7253 99.1984L81.9232 111.299M49.7141 96.967C49.5709 96.967 49.8414 96.967 49.7141 96.967ZM81.9232 111.299L127.352 66.2314C128.848 64.7469 130.801 64.0037 132.754 64M74.5703 137.077C76.5444 137.088 78.5221 136.345 80.0332 134.846L138.187 77.1532C141.203 74.1612 141.222 69.2907 138.23 66.2747C136.723 64.7551 134.738 63.9962 132.754 64M74.5703 137.077C79.3109 137.077 87.3602 137.077 89.231 137.077C91.1901 137.077 93.1491 136.333 94.6486 134.846L152.802 77.1532C155.818 74.1612 155.838 69.2907 152.846 66.2748C151.342 64.759 149.364 64.0001 147.385 64C145.506 64 138.735 64 132.754 64" stroke="#124937" stroke-width="2" stroke-linecap="round" stroke-linejoin="round"/>
</g>
</svg>
